<?xml version="1.0" encoding="UTF-8" standalone="no"?>
<svg
   width="113.47893"
   height="116.92979"
   version="1.1"
   id="svg7752"
   sodipodi:docname="green-arrow.svg"
   inkscape:version="1.3.2 (091e20ef0f, 2023-11-25, custom)"
   xmlns:inkscape="http://www.inkscape.org/namespaces/inkscape"
   xmlns:sodipodi="http://sodipodi.sourceforge.net/DTD/sodipodi-0.dtd"
   xmlns="http://www.w3.org/2000/svg"
   xmlns:svg="http://www.w3.org/2000/svg">
  <defs
     id="defs7756" />
  <sodipodi:namedview
     id="namedview7754"
     pagecolor="#ffffff"
     bordercolor="#666666"
     borderopacity="1.0"
     inkscape:showpageshadow="2"
     inkscape:pageopacity="0.0"
     inkscape:pagecheckerboard="0"
     inkscape:deskcolor="#d1d1d1"
     showgrid="false"
     inkscape:zoom="1.7"
     inkscape:cx="57.647059"
     inkscape:cy="55.882353"
     inkscape:window-width="1920"
     inkscape:window-height="1042"
     inkscape:window-x="1080"
     inkscape:window-y="38"
     inkscape:window-maximized="1"
     inkscape:current-layer="svg7752" />
  <polygon
     points="52.9099,84.92 100,3.3599 147.0901,84.92 "
     style="fill:#008000;fill-opacity:0.1;stroke:#008000;stroke-width:1.5px;stroke-opacity:1"
     id="polygon7746"
     transform="translate(-43.389323,-1.8599324)" />
  <text
     x="56.610676"
     y="55.873402"
     text-anchor="middle"
     dominant-baseline="middle"
     style="fill:#008000;fill-opacity:1"
     font-family="sans-serif"
     font-size="80%"
     id="text7748">S</text>
  <path
     id="path1"
     style="font-size:37.3333px;line-height:1.25;-inkscape-font-specification:sans-serif;letter-spacing:0px;fill:#999999"
     d="m 48.341369,94.549157 2.187538,2.187636 4.228702,-4.265738 -8.63e-4,18.747605 -3.658517,-3.65937 -2.187636,2.18754 7.183421,7.18295 1.639843,-4.5e-4 7.146124,-7.18213 -2.187536,-2.18764 -4.228709,4.26574 -1.01e-4,-18.745911 3.657791,3.656705 2.18764,-2.18755 -7.181732,-7.181967 -1.639843,4.5e-4 z" />
  <path
     id="path1158"
     style="font-size:37.3333px;line-height:1.25;-inkscape-font-specification:sans-serif;letter-spacing:0px;fill:#999999"
     d="M 99.275391 22.021484 L 98.474609 25.009766 L 104.2832 26.539062 L 88.046875 35.912109 L 89.386719 30.914062 L 86.398438 30.113281 L 83.769531 39.925781 L 84.589844 41.345703 L 94.382812 43.943359 L 95.183594 40.955078 L 89.375 39.425781 L 105.60938 30.052734 L 104.27148 35.048828 L 107.25977 35.849609 L 109.88867 26.039062 L 109.06836 24.619141 L 99.275391 22.021484 z " />
  <path
     id="path2"
     style="font-size:37.3333px;line-height:1.25;-inkscape-font-specification:sans-serif;letter-spacing:0px;fill:#999999"
     d="m 6.2352939,35.364761 2.9883174,-0.800645 -1.5798863,-5.795033 16.235471,9.37455 -4.998366,1.338684 0.800647,2.988318 9.812328,-2.62955 0.819532,-1.420371 -2.646845,-9.77979 -2.98832,0.800642 1.579884,5.795039 -16.234485,-9.372868 4.995695,-1.339387 -0.800654,-2.988327 -9.8106321,2.628579 -0.8195318,1.42037 z" />
</svg>
