<?xml version="1.0" encoding="UTF-8" standalone="no"?>
<!-- Created with Inkscape (http://www.inkscape.org/) -->

<svg
   width="58.304268mm"
   height="48.477764mm"
   viewBox="0 0 58.304268 48.477764"
   version="1.1"
   id="svg43671"
   inkscape:version="1.2.2 (b0a8486541, 2022-12-01)"
   sodipodi:docname="red-blue-arrow.svg"
   xmlns:inkscape="http://www.inkscape.org/namespaces/inkscape"
   xmlns:sodipodi="http://sodipodi.sourceforge.net/DTD/sodipodi-0.dtd"
   xmlns="http://www.w3.org/2000/svg"
   xmlns:svg="http://www.w3.org/2000/svg">
  <sodipodi:namedview
     id="namedview43673"
     pagecolor="#ffffff"
     bordercolor="#666666"
     borderopacity="1.0"
     inkscape:showpageshadow="2"
     inkscape:pageopacity="0.0"
     inkscape:pagecheckerboard="0"
     inkscape:deskcolor="#d1d1d1"
     inkscape:document-units="mm"
     showgrid="false"
     inkscape:zoom="1.6819304"
     inkscape:cx="76.10303"
     inkscape:cy="21.1067"
     inkscape:window-width="1920"
     inkscape:window-height="1060"
     inkscape:window-x="1080"
     inkscape:window-y="20"
     inkscape:window-maximized="1"
     inkscape:current-layer="layer1" />
  <defs
     id="defs43668" />
  <g
     inkscape:label="Layer 1"
     inkscape:groupmode="layer"
     id="layer1"
     transform="translate(-96.621928,-134.38525)">
    <polygon
       points="52.9099,84.92 100,3.3599 147.0901,84.92 "
       style="fill:#ff0000;fill-opacity:0.101961;stroke:#ff0000;stroke-width:1.5px"
       id="polygon7746"
       transform="matrix(0.26458333,0,0,0.26458333,85.141843,151.43322)" />
    <text
       x="111.60017"
       y="166.70851"
       text-anchor="middle"
       dominant-baseline="middle"
       style="fill:#ff0000;stroke-width:0.264583;font-size:3.52777778px"
       font-family="sans-serif"
       font-size="2.54px"
       id="text7748">cat</text>
    <g
       aria-label="↓"
       id="text7760"
       style="font-size:9.87777px;line-height:1.25;-inkscape-font-specification:sans-serif;letter-spacing:0px;fill:#cccccc;stroke-width:0.264583">
      <path
         d="m 111.82204,182.86302 h -0.43408 l -1.90032,-1.90032 0.57878,-0.57877 1.12861,1.12861 v -5.88422 h 0.81993 v 5.88422 l 1.11897,-1.12861 0.57877,0.57877 z"
         id="path1175"
         style="fill:#cccccc" />
    </g>
    <g
       aria-label="↓"
       transform="rotate(-120)"
       id="text7896"
       style="font-size:9.87777px;line-height:1.25;-inkscape-font-specification:sans-serif;letter-spacing:0px;fill:#008000;stroke-width:0.264583">
      <path
         d="m -199.95183,29.448851 h -0.43408 l -1.90031,-1.900314 0.57877,-0.578775 1.12862,1.128612 v -5.884219 h 0.81993 v 5.884219 l 1.11896,-1.128612 0.57878,0.578775 z"
         id="path1178"
         style="fill:#008000" />
    </g>
    <g
       aria-label="↓"
       transform="rotate(120.28902)"
       id="text7929"
       style="font-size:9.87777px;line-height:1.25;-inkscape-font-specification:sans-serif;letter-spacing:0px;fill:#cccccc;stroke-width:0.264583">
      <path
         d="m 87.813699,-164.29264 h -0.434082 l -1.900313,-1.90031 0.578775,-0.57878 1.128613,1.12861 v -5.88421 h 0.819932 v 5.88421 l 1.118966,-1.12861 0.578776,0.57878 z"
         id="path1172"
         style="fill:#cccccc" />
    </g>
    <polygon
       points="147.0901,84.92 52.9099,84.92 100,3.3599 "
       style="fill:#0000ff;fill-opacity:0.101961;stroke:#0000ff;stroke-width:1.5px"
       id="polygon10702"
       transform="matrix(0.13229166,0.22913589,-0.22913589,0.13229166,139.90847,119.9988)" />
    <text
       x="139.7849"
       y="150.61865"
       text-anchor="middle"
       dominant-baseline="middle"
       style="fill:#0000ff;stroke-width:0.264583;font-size:3.52777778px"
       font-family="sans-serif"
       font-size="2.54px"
       id="text10704">sleep</text>
    <circle
       cx="200.33458"
       cy="-55.238354"
       r="0.79374999"
       style="fill:#0000ff;stroke-width:0.264583"
       id="circle10706"
       transform="rotate(60)" />
    <g
       aria-label="↑"
       transform="rotate(60)"
       id="text7760-2"
       style="font-size:9.87777px;line-height:1.25;-inkscape-font-specification:sans-serif;letter-spacing:0px;fill:#008000;stroke-width:0.264583">
      <path
         d="m 200.12236,-37.003568 h 0.43408 l 1.89067,1.900313 -0.57878,0.578776 -1.11896,-1.128613 v 5.884219 h -0.81993 v -5.884219 l -1.12862,1.128613 -0.57877,-0.578776 z"
         id="path1181"
         style="fill:#008000" />
    </g>
    <g
       aria-label="↑"
       transform="rotate(-60)"
       id="text7896-7"
       style="font-size:9.87777px;line-height:1.25;-inkscape-font-specification:sans-serif;letter-spacing:0px;fill:#cccccc;stroke-width:0.264583">
      <path
         d="m -60.637755,205.3257 h 0.434082 l 1.890667,1.90031 -0.578776,0.57878 -1.118966,-1.12861 v 5.88421 h -0.819932 v -5.88421 l -1.128613,1.12861 -0.578775,-0.57878 z"
         id="path1187"
         style="fill:#cccccc" />
    </g>
    <g
       aria-label="↓"
       transform="rotate(-179.71098)"
       id="text7929-9"
       style="font-size:9.87777px;line-height:1.25;-inkscape-font-specification:sans-serif;letter-spacing:0px;fill:#cccccc;stroke-width:0.264583">
      <path
         d="m -140.51739,-133.68767 h -0.43409 l -1.90031,-1.90032 0.57878,-0.57877 1.12861,1.12861 v -5.88422 h 0.81993 v 5.88422 l 1.11897,-1.12861 0.57877,0.57877 z"
         id="path1184"
         style="fill:#cccccc" />
    </g>
  </g>
</svg>
